<svg width="23" height="28" viewBox="0 0 23 28" fill="none" xmlns="http://www.w3.org/2000/svg">
<path fill-rule="evenodd" clip-rule="evenodd" d="M11.5001 0C5.15252 0 0 5.07789 0 11.3332C0 14.8858 1.66138 18.2846 3.72732 21.0566C6.63427 24.9586 10.2674 27.5892 10.2993 27.6126C11.0144 28.1291 11.9856 28.1291 12.7007 27.6126C12.7326 27.5892 16.366 24.9586 19.2727 21.0566C21.3386 18.2845 23 14.8857 23 11.3332C23 5.07772 17.8473 0 11.4999 0H11.5001ZM11.5001 6.66687C14.1133 6.66687 16.2356 8.75818 16.2356 11.3334C16.2356 13.9088 14.1133 16.0001 11.5001 16.0001C8.88698 16.0001 6.76462 13.9088 6.76462 11.3334C6.76462 8.75818 8.88698 6.66687 11.5001 6.66687Z" fill="white"/>
</svg>
