<svg width="20" height="32" viewBox="0 0 20 32" fill="none" xmlns="http://www.w3.org/2000/svg">
<path d="M16.4474 0H3.55263C1.6119 0 0 1.57889 0 3.55263V27.6974C0 29.6381 1.57889 31.25 3.55263 31.25H16.4474C18.3881 31.25 20 29.6711 20 27.6974V3.55263C19.9998 1.57883 18.4209 0 16.4474 0ZM10 29.2763C8.91447 29.2763 8.0262 28.3881 8.0262 27.3025C8.0262 26.2169 8.91442 25.3287 10 25.3287C11.0856 25.3287 11.9738 26.2169 11.9738 27.3025C11.9738 28.3883 11.0856 29.2763 10 29.2763ZM16.4474 23.3882H3.55263C3.09212 23.3882 2.73026 23.0263 2.73026 22.5658V3.55263C2.73026 3.09212 3.09212 2.73026 3.55263 2.73026H16.4474C16.9079 2.73026 17.2697 3.09212 17.2697 3.55263V22.5658C17.3025 23.0263 16.9079 23.3882 16.4474 23.3882Z" fill="white"/>
</svg>
