<svg width="9" height="20" viewBox="0 0 9 20" fill="none" xmlns="http://www.w3.org/2000/svg">
<path d="M0.000596495 19.6079C0.000596491 19.5093 0.0360178 19.4099 0.108301 19.332L7.94272 10.8753C8.38778 10.3945 8.38778 9.6038 7.94143 9.12282L0.108478 0.666065C0.0356188 0.587584 0.00135275 0.488945 0.00207153 0.390148C0.00264748 0.291505 0.035621 0.195657 0.108478 0.117021C0.253618 -0.0386973 0.47363 -0.0393167 0.618044 0.117021L8.45357 8.57258C8.82002 8.96793 9 9.48206 9 10.0004L9 10.0018C8.99942 10.5181 8.82001 11.0323 8.45427 11.4262L0.617271 19.883C0.472131 20.0393 0.252119 20.0387 0.107705 19.883C0.0354244 19.8051 8.61431e-07 19.7073 8.57113e-07 19.6085L0.000596495 19.6079Z" fill="#0085FF"/>
</svg>
