<svg width="25" height="25" viewBox="0 0 25 25" fill="none" xmlns="http://www.w3.org/2000/svg">
<path d="M0.570322 0.570323C1.33075 -0.190108 2.56326 -0.190108 3.32328 0.570323L12.5 9.74705L21.6767 0.570323C22.4371 -0.190108 23.6697 -0.190108 24.4297 0.570323C25.1901 1.33075 25.1901 2.56326 24.4297 3.32328L15.253 12.5L24.4297 21.6767C25.1901 22.4372 25.1901 23.6697 24.4297 24.4297C23.6692 25.1901 22.4367 25.1897 21.6767 24.4297L12.5 15.253L3.32328 24.4297C2.56285 25.1897 1.33035 25.1897 0.570322 24.4297C-0.190107 23.6693 -0.190107 22.4368 0.570322 21.6767L9.74704 12.5L0.570322 3.32328C-0.190107 2.56285 -0.190107 1.33035 0.570322 0.570323Z" fill="#FF2323"/>
</svg>
