<svg width="22" height="22" viewBox="0 0 22 22" fill="none" xmlns="http://www.w3.org/2000/svg">
<path d="M17.2993 1.55009V0.782921C17.2993 0.352315 16.945 0 16.5119 0C16.0788 0 15.7245 0.352315 15.7245 0.782921V1.48755H11.7875V0.782921C11.7875 0.352315 11.4332 0 11.0001 0C10.5671 0 10.2127 0.352315 10.2127 0.782921V1.48755H6.27577V0.782921C6.27577 0.352315 5.92144 0 5.48837 0C5.0553 0 4.70098 0.352315 4.70098 0.782921V1.55009C2.04736 1.94156 0 4.2199 0 6.96791V16.5196C0 19.5417 2.47238 22 5.51177 22H16.4881C19.5275 22 21.9998 19.5417 21.9998 16.5196L22 6.96791C22 4.21981 19.9528 1.94916 17.299 1.55009H17.2993ZM4.70098 3.13951V3.91456C4.70098 4.34517 5.0553 4.69748 5.48837 4.69748C5.92144 4.69748 6.27577 4.34517 6.27577 3.91456V3.05335H10.2127V3.91456C10.2127 4.34517 10.5671 4.69748 11.0001 4.69748C11.4332 4.69748 11.7875 4.34517 11.7875 3.91456V3.05335H15.7245V3.91456C15.7245 4.34517 16.0788 4.69748 16.5119 4.69748C16.945 4.69748 17.2993 4.34517 17.2993 3.91456V3.13951C19.0868 3.51525 20.4254 5.08107 20.4254 6.96796V7.04625H1.57511V6.96796C1.57511 5.08107 2.91368 3.50735 4.70116 3.13951H4.70098ZM6.16558 13.7403V15.3061H3.86629V13.7403H6.16558ZM3.86629 12.1744V10.6086H6.16558V12.1744H3.86629ZM6.16558 16.872V18.4378H3.86629V16.872H6.16558ZM12.0629 13.7403V15.3061H9.7795V13.7403H12.0629ZM9.7795 12.1744V10.6086H12.0629V12.1744H9.7795ZM12.0629 16.872V18.4378H9.7795V16.872H12.0629ZM18.134 15.3061H15.6458V13.7403H18.134V15.3061ZM18.134 12.1744H15.6458V10.6086H18.134V12.1744Z" fill="#0085FF"/>
</svg>
