<svg width="28" height="20" viewBox="0 0 28 20" fill="none" xmlns="http://www.w3.org/2000/svg">
<path fill-rule="evenodd" clip-rule="evenodd" d="M27.6626 2.02405C28 2.52997 28 3.03618 28 3.54208V16.1926C28 16.8673 27.8314 17.3733 27.6626 17.8794L20.7472 11.1326C20.0725 10.2893 18.8918 11.47 19.7351 12.3133L26.4819 19.0601C25.976 19.566 25.3013 19.7348 24.4577 19.7348H3.71078C2.8675 19.7348 2.19274 19.5663 1.68657 19.0601L8.4334 12.3133C9.27668 11.47 8.09604 10.289 7.25275 11.1326L0.505917 17.8794C0.168552 17.3735 0 16.8673 0 16.1926V3.54208C0 3.03616 0.168552 2.52995 0.505917 2.02405L10.9636 10.7952C12.6505 12.1447 15.3492 12.1447 17.036 10.7952L27.6622 2.02405H27.6626Z" fill="white"/>
<path fill-rule="evenodd" clip-rule="evenodd" d="M3.71045 0H24.4574C25.3007 0 25.9754 0.337365 26.6502 0.674737L16.0239 9.44591C15.0118 10.458 13.1564 10.2892 12.1443 9.44591L1.51807 0.674737C2.1928 0.337372 2.86751 0 3.71086 0H3.71045Z" fill="white"/>
</svg>
