<svg width="16" height="24" viewBox="0 0 16 24" fill="none" xmlns="http://www.w3.org/2000/svg">
<path d="M13.1579 0H2.84211C1.28952 0 0 1.21259 0 2.72842V21.2716C0 22.7621 1.26311 24 2.84211 24H13.1579C14.7105 24 16 22.7874 16 21.2716V2.72842C15.9998 1.21254 14.7367 0 13.1579 0ZM8 22.4842C7.13158 22.4842 6.42096 21.8021 6.42096 20.9683C6.42096 20.1346 7.13153 19.4525 8 19.4525C8.86847 19.4525 9.57904 20.1346 9.57904 20.9683C9.57904 21.8022 8.86847 22.4842 8 22.4842ZM13.1579 17.9621H2.84211C2.47369 17.9621 2.18421 17.6842 2.18421 17.3305V2.72842C2.18421 2.37475 2.47369 2.09684 2.84211 2.09684H13.1579C13.5263 2.09684 13.8158 2.37475 13.8158 2.72842V17.3305C13.842 17.6842 13.5263 17.9621 13.1579 17.9621Z" fill="white"/>
</svg>
