<svg width="9" height="20" viewBox="0 0 9 20" fill="none" xmlns="http://www.w3.org/2000/svg">
<path d="M8.9994 19.6079C8.9994 19.5093 8.96398 19.4099 8.8917 19.332L1.05728 10.8753C0.612218 10.3945 0.612218 9.6038 1.05857 9.12282L8.89152 0.666065C8.96438 0.587584 8.99865 0.488945 8.99793 0.390148C8.99735 0.291505 8.96438 0.195657 8.89152 0.117021C8.74638 -0.0386973 8.52637 -0.0393167 8.38196 0.117021L0.546427 8.57258C0.179978 8.96793 5.392e-07 9.48206 5.16542e-07 10.0004L5.16481e-07 10.0018C0.000576513 10.5181 0.179986 11.0323 0.545727 11.4262L8.38273 19.883C8.52787 20.0393 8.74788 20.0387 8.89229 19.883C8.96458 19.8051 9 19.7073 9 19.6085L8.9994 19.6079Z" fill="#555555"/>
</svg>
