<svg width="22" height="16" viewBox="0 0 22 16" fill="none" xmlns="http://www.w3.org/2000/svg">
<path d="M20.256 0.401453C20.0051 0.415489 19.7688 0.525042 19.5963 0.70819L7.98587 12.7787L2.31124 7.54877L2.31158 7.54843C2.12638 7.34268 1.86278 7.22458 1.58583 7.22321C1.30887 7.22218 1.04424 7.3379 0.857327 7.54227C0.67041 7.74664 0.57866 8.02052 0.604339 8.29611C0.630014 8.57203 0.771055 8.82399 0.992554 8.99037L7.37277 14.8796C7.76544 15.235 8.36967 15.2148 8.73766 14.8334L21.0071 2.07316C21.2933 1.78491 21.3724 1.3498 21.2057 0.979077C21.0393 0.608662 20.6614 0.378951 20.2557 0.401553L20.256 0.401453Z" fill="#0085FF"/>
</svg>
