<svg width="58" height="68" viewBox="0 0 58 68" fill="none" xmlns="http://www.w3.org/2000/svg">
<g filter="url(#filter0_d_153_951)">
<path fill-rule="evenodd" clip-rule="evenodd" d="M29.0002 3C16.857 3 7 12.7931 7 24.8568C7 31.7084 10.1783 38.2632 14.1305 43.6092C19.6916 51.1345 26.642 56.2077 26.703 56.2529C28.071 57.249 29.929 57.249 31.297 56.2529C31.3581 56.2077 38.3088 51.1345 43.8695 43.6092C47.8217 38.2629 51 31.7082 51 24.8568C51 12.7927 41.1431 3 29.0002 3ZM29.0002 15.8575C33.9993 15.8575 38.0594 19.8908 38.0594 24.8572C38.0594 29.8242 33.9993 33.8574 29.0002 33.8574C24.0012 33.8574 19.941 29.8242 19.941 24.8572C19.941 19.8908 24.0012 15.8575 29.0002 15.8575Z" fill="#0085FF"/>
</g>
<defs>
<filter id="filter0_d_153_951" x="0" y="0" width="58" height="68" filterUnits="userSpaceOnUse" color-interpolation-filters="sRGB">
<feFlood flood-opacity="0" result="BackgroundImageFix"/>
<feColorMatrix in="SourceAlpha" type="matrix" values="0 0 0 0 0 0 0 0 0 0 0 0 0 0 0 0 0 0 127 0" result="hardAlpha"/>
<feOffset dy="4"/>
<feGaussianBlur stdDeviation="3.5"/>
<feComposite in2="hardAlpha" operator="out"/>
<feColorMatrix type="matrix" values="0 0 0 0 0.0397444 0 0 0 0 0.0330556 0 0 0 0 0.116667 0 0 0 0.25 0"/>
<feBlend mode="normal" in2="BackgroundImageFix" result="effect1_dropShadow_153_951"/>
<feBlend mode="normal" in="SourceGraphic" in2="effect1_dropShadow_153_951" result="shape"/>
</filter>
</defs>
</svg>
